<svg xmlns="http://www.w3.org/2000/svg" viewBox="0 0 48 48" width="36" height="36" preserveAspectRatio="xMidYMid meet" style="width: 100%; height: 100%; transform: translate3d(0px, 0px, 0px);"><defs><clipPath id="__lottie_element_282"><rect width="36" height="36" x="0" y="0"></rect></clipPath><mask id="__lottie_element_284"><rect fill="#ffffff" width="36" height="36" transform="matrix(0.7407407164573669,0,0,0.7407407164573669,-17.77777671813965,-17.77777671813965)"></rect><path fill="#ffffff" clip-rule="nonzero" d=" M-7.769999980926514,-10.598999977111816 C-7.769999980926514,-10.598999977111816 -9.1899995803833,-9.189000129699707 -9.1899995803833,-9.189000129699707 C-9.1899995803833,-9.189000129699707 -9.185999870300293,-9.192000389099121 -9.185999870300293,-9.192000389099121 C-9.185999870300293,-9.192000389099121 -7.769000053405762,-10.600000381469727 -7.769000053405762,-10.600000381469727 C-7.769000053405762,-10.600000381469727 -7.769999980926514,-10.598999977111816 -7.769999980926514,-10.598999977111816" fill-opacity="1"></path></mask></defs><g clip-path="url(#__lottie_element_282)"><g mask="url(#__lottie_element_284)" transform="matrix(1.350000023841858,0,0,1.350000023841858,24,24)" opacity="1" style="display: block;"><g opacity="1" transform="matrix(1,0,0,1,0,0)"><g class="stroke KIzDle" opacity="0" transform="matrix(1,0,0,1,0,0)"><path class="fill bkbMM" fill="#FFFFFF" fill-opacity="1" d=" M-9.1899995803833,-9.189000129699707 C-9.1899995803833,-9.189000129699707 -10.609999656677246,-7.7789998054504395 -10.609999656677246,-7.7789998054504395 C-10.609999656677246,-7.7789998054504395 -10.607999801635742,-7.78000020980835 -10.607999801635742,-7.78000020980835 C-10.607999801635742,-7.78000020980835 -9.187999725341797,-9.187999725341797 -9.187999725341797,-9.187999725341797 C-9.187999725341797,-9.187999725341797 -9.1899995803833,-9.189000129699707 -9.1899995803833,-9.189000129699707z"></path></g><g opacity="1" transform="matrix(1,0,0,1,0,0)"><path class="fill bkbMM" fill="#FFFFFF" fill-opacity="1" d=" M4,-2.309999942779541 C4,-2.309999942779541 4,6 4,6 C4,6 -8,6 -8,6 C-8,6 -8,-6 -8,-6 C-8,-6 4,-6 4,-6 C4,-6 4,-2.309999942779541 4,-2.309999942779541z M6,-1.5199999809265137 C6,-1.5199999809265137 6,-6 6,-6 C6,-7.099999904632568 5.099999904632568,-8 4,-8 C4,-8 -8,-8 -8,-8 C-9.100000381469727,-8 -10,-7.099999904632568 -10,-6 C-10,-6 -10,6 -10,6 C-10,7.099999904632568 -9.100000381469727,8 -8,8 C-8,8 4,8 4,8 C5.099999904632568,8 6,7.099999904632568 6,6 C6,6 6,1.5199999809265137 6,1.5199999809265137 C6,1.5199999809265137 10,5.5 10,5.5 C10,5.5 10,-5.5 10,-5.5 C10,-5.5 6,-1.5199999809265137 6,-1.5199999809265137z"></path></g></g></g></g></svg>