<svg width="21" height="9" viewBox="0 0 21 9" fill="none" xmlns="http://www.w3.org/2000/svg">
<path d="M0.0509052 5.99307L0.248905 7.03007C0.432905 8.00107 1.3409 8.65307 2.3689 8.55407L4.4159 8.35607C5.3069 8.27007 6.0669 7.63607 6.2939 6.79007L6.9249 4.43507C7.8599 4.05207 8.8899 3.87707 10.0149 3.90907C11.0984 3.93268 12.1661 4.17343 13.1549 4.61707L13.5469 6.82207C13.6949 7.65807 14.3839 8.28107 15.2569 8.36907L17.2919 8.57307C18.3079 8.67507 19.2809 8.02907 19.5689 7.06307L19.8789 6.02507C20.1869 4.99407 19.9119 3.90807 19.1579 3.17507C17.3769 1.44507 14.4079 0.577067 10.2509 0.571067C6.0869 0.566067 3.0259 1.42807 1.0659 3.15907C0.240905 3.88707 -0.144095 4.96507 0.0509052 5.99307V5.99307Z" fill="#FFFFFF"/>
</svg>
