<svg width="22" height="22" viewBox="0 0 20 20" fill="none" xmlns="http://www.w3.org/2000/svg">
<path d="M3.75 15.0032H16.25C16.5814 15.0028 16.8992 14.871 17.1335 14.6367C17.3679 14.4023 17.4997 14.0846 17.5 13.7532V5.00317C17.4997 4.67175 17.3679 4.354 17.1335 4.11966C16.8992 3.88531 16.5814 3.7535 16.25 3.75317H3.75C3.41858 3.7535 3.10083 3.88531 2.86648 4.11966C2.63213 4.354 2.50033 4.67175 2.5 5.00317V13.7532C2.5005 14.0845 2.63235 14.4022 2.86666 14.6365C3.10098 14.8708 3.41863 15.0027 3.75 15.0032V15.0032ZM16.25 5.00317V13.7532H3.75V5.00317H16.25Z" fill="black"/>
<path d="M18.75 16.2532H1.25V17.5032H18.75V16.2532Z" fill="black"/>
</svg>
