<svg xmlns="http://www.w3.org/2000/svg" viewBox="0 0 48 48" width="36" height="36" preserveAspectRatio="xMidYMid meet" style="width: 100%; height: 100%; transform: translate3d(0px, 0px, 0px);"><defs><clipPath id="__lottie_element_242"><rect width="36" height="36" x="0" y="0"></rect></clipPath><mask id="__lottie_element_244"><rect fill="#ffffff" width="36" height="36" transform="matrix(0.7407407164573669,0,0,0.7407407164573669,-17.77777671813965,-17.77777671813965)"></rect><path fill="#000000" clip-rule="nonzero" d=" M-7.769999980926514,-10.111000061035156 C-7.769999980926514,-10.111000061035156 -9.187000274658203,-8.694000244140625 -9.187000274658203,-8.694000244140625 C-9.187000274658203,-8.694000244140625 9.204000473022461,9.696999549865723 9.204000473022461,9.696999549865723 C9.204000473022461,9.696999549865723 10.621000289916992,8.279999732971191 10.621000289916992,8.279999732971191 C10.621000289916992,8.279999732971191 -7.769999980926514,-10.111000061035156 -7.769999980926514,-10.111000061035156" fill-opacity="1"></path></mask></defs><g clip-path="url(#__lottie_element_242)"><g mask="url(#__lottie_element_244)" transform="matrix(1.350000023841858,0,0,1.350000023841858,24,24)" opacity="1" style="display: block;"><g opacity="1" transform="matrix(1,0,0,1,0,0)"><g class="stroke KIzDle" opacity="1" transform="matrix(1,0,0,1,0,0)"><path class="fill bkbMM" fill="rgb(255,255,255)" fill-opacity="1" d=" M-9.187999725341797,-8.692999839782715 C-9.187999725341797,-8.692999839782715 -10.604999542236328,-7.276000022888184 -10.604999542236328,-7.276000022888184 C-10.604999542236328,-7.276000022888184 7.783999919891357,11.112000465393066 7.783999919891357,11.112000465393066 C7.783999919891357,11.112000465393066 9.199999809265137,9.694999694824219 9.199999809265137,9.694999694824219 C9.199999809265137,9.694999694824219 -9.187999725341797,-8.692999839782715 -9.187999725341797,-8.692999839782715z"></path></g><g opacity="1" transform="matrix(1,0,0,1,0,0)"><path class="fill bkbMM" fill="rgb(255,255,255)" fill-opacity="1" d=" M5,-0.5 C5,2.259999990463257 2.759999990463257,4.5 0,4.5 C-2.759999990463257,4.5 -5,2.259999990463257 -5,-0.5 C-5,-0.5 -7,-0.5 -7,-0.5 C-7,3.0299999713897705 -4.389999866485596,5.929999828338623 -1,6.420000076293945 C-1,6.420000076293945 -1,9.5 -1,9.5 C-1,9.5 1,9.5 1,9.5 C1,9.5 1,6.420000076293945 1,6.420000076293945 C4.389999866485596,5.929999828338623 7,3.0299999713897705 7,-0.5 C7,-0.5 5,-0.5 5,-0.5z M-1,-6.5 C-1,-7.050000190734863 -0.550000011920929,-7.5 0,-7.5 C0.550000011920929,-7.5 1,-7.050000190734863 1,-6.5 C1,-6.5 1,-0.5 1,-0.5 C1,0.05000000074505806 0.550000011920929,0.5 0,0.5 C-0.550000011920929,0.5 -1,0.05000000074505806 -1,-0.5 C-1,-0.5 -1,-6.5 -1,-6.5z M0,2.5 C1.659999966621399,2.5 3,1.159999966621399 3,-0.5 C3,-0.5 3,-6.5 3,-6.5 C3,-8.15999984741211 1.659999966621399,-9.5 0,-9.5 C-1.659999966621399,-9.5 -3,-8.15999984741211 -3,-6.5 C-3,-6.5 -3,-0.5 -3,-0.5 C-3,1.159999966621399 -1.659999966621399,2.5 0,2.5z"></path></g></g></g></g></svg>