<svg width="30" height="30" viewBox="0 0 30 30" fill="none" xmlns="http://www.w3.org/2000/svg">
<path d="M24.4031 14.5028C24.5349 14.6347 24.6088 14.8136 24.6087 15.0001C24.6086 15.1866 24.5344 15.3653 24.4024 15.4971L14.7868 25.1003C13.6 26.287 11.9904 26.9536 10.312 26.9536C8.6337 26.9535 7.02413 26.2867 5.83741 25.0999C4.6507 23.913 3.98405 22.3034 3.98413 20.6251C3.98421 18.9467 4.651 17.3371 5.83782 16.1504L17.4721 4.35433C17.8851 3.93924 18.3759 3.60966 18.9164 3.38448C19.4569 3.15929 20.0365 3.04291 20.622 3.042C21.2076 3.04109 21.7875 3.15566 22.3287 3.37917C22.8699 3.60267 23.3618 3.93072 23.776 4.34452C24.1903 4.75833 24.5189 5.24978 24.743 5.79074C24.9671 6.33169 25.0823 6.91153 25.0821 7.49707C25.0818 8.08262 24.9661 8.66236 24.7415 9.20311C24.5169 9.74387 24.1879 10.235 23.7733 10.6485L12.1389 22.4447C11.9003 22.6869 11.6161 22.8796 11.3028 23.0115C10.9894 23.1435 10.6531 23.2122 10.3131 23.2136C9.97308 23.2151 9.63615 23.1492 9.3217 23.0199C9.00724 22.8906 8.72146 22.7004 8.48082 22.4602C8.24017 22.22 8.04942 21.9346 7.91953 21.6204C7.78965 21.3062 7.7232 20.9694 7.72401 20.6294C7.72482 20.2894 7.79288 19.9529 7.92426 19.6393C8.05564 19.3257 8.24776 19.0412 8.48954 18.8021L18.2481 8.88152C18.3789 8.74858 18.5571 8.67303 18.7436 8.6715C18.9301 8.66998 19.1095 8.74259 19.2425 8.87338C19.3754 9.00416 19.451 9.1824 19.4525 9.36889C19.454 9.55537 19.3814 9.73483 19.2506 9.86777L9.48798 19.7926C9.37621 19.9005 9.28703 20.0296 9.22561 20.1723C9.16419 20.3151 9.13176 20.4686 9.13022 20.6239C9.12867 20.7793 9.15804 20.9334 9.21661 21.0773C9.27518 21.2212 9.36178 21.3521 9.47137 21.4622C9.58097 21.5723 9.71138 21.6596 9.855 21.7189C9.99862 21.7781 10.1526 21.8082 10.308 21.8075C10.4633 21.8067 10.617 21.775 10.76 21.7143C10.903 21.6535 11.0326 21.565 11.141 21.4537L22.7754 9.65765C23.0593 9.37511 23.2846 9.03937 23.4386 8.66965C23.5926 8.29992 23.6721 7.90347 23.6728 7.50297C23.6734 7.10247 23.595 6.70577 23.4422 6.33558C23.2894 5.96538 23.065 5.62895 22.7821 5.34552C22.4991 5.06209 22.163 4.83724 21.7931 4.68381C21.4231 4.53039 21.0266 4.4514 20.6261 4.45138C20.2256 4.45136 19.829 4.5303 19.459 4.68368C19.089 4.83706 18.7529 5.06188 18.4699 5.34527L6.83556 17.1414C6.37828 17.5982 6.01546 18.1406 5.7678 18.7376C5.52014 19.3346 5.39251 19.9746 5.39217 20.6209C5.39184 21.2673 5.51882 21.9074 5.76587 22.5047C6.01291 23.102 6.37518 23.6447 6.83198 24.102C7.28879 24.5593 7.83119 24.9221 8.42822 25.1698C9.02525 25.4174 9.66521 25.5451 10.3116 25.5454C10.9579 25.5457 11.598 25.4187 12.1953 25.1717C12.7926 24.9247 13.3354 24.5624 13.7926 24.1056L23.4086 14.5022C23.4739 14.4369 23.5514 14.3852 23.6368 14.3499C23.7221 14.3146 23.8136 14.2964 23.9059 14.2965C23.9983 14.2966 24.0897 14.3148 24.175 14.3502C24.2603 14.3856 24.3378 14.4374 24.403 14.5028H24.4031Z" fill="#C9C9C9" fill-opacity="1"/>
</svg>
