<svg focusable="false" width="24" height="24" fill="#1a73e8" viewBox="0 0 24 24" class="Hdh4hc cIGbvc NMm5M">
<path style="#1a73e8" d="M20.97 15.82v4.15c0 .56-.47 1.03-1.03 1a17.92 17.92 0 0 1-8.01-2.43 18.08 18.08 0 0 1-6.5-6.5A17.92 17.92 0 0 1 3 4.03C2.97 3.47 3.44 3 4 3h4.15c.48 0 .89.34.98.8l.65 3.26a.99.99 0 0 1-.27.9l-2.62 2.62c1.49 2.75 3.75 5.01 6.5 6.5l2.62-2.62a.98.98 0 0 1 .9-.27l3.26.65c.47.09.8.5.8.98zM16.99 4l-1.41 1.41L17.16 7H12v2h5.16l-1.59 1.59L16.99 12 21 8.01 16.99 4z"></path>
</svg>