<svg width="20" height="16" viewBox="0 0 20 16" fill="none" xmlns="http://www.w3.org/2000/svg">
<path d="M20 2.25C20 1.65326 19.7629 1.08097 19.341 0.65901C18.919 0.237053 18.3467 0 17.75 0H2.25C1.65327 0 1.08097 0.237053 0.659012 0.65901C0.237055 1.08097 2.38419e-06 1.65326 2.38419e-06 2.25V13.75C2.38419e-06 14.0455 0.0581997 14.3381 0.171273 14.611C0.284346 14.884 0.45008 15.1321 0.659012 15.341C0.867944 15.5499 1.11598 15.7157 1.38896 15.8287C1.66195 15.9418 1.95453 16 2.25 16H17.75C18.0455 16 18.3381 15.9418 18.611 15.8287C18.884 15.7157 19.1321 15.5499 19.341 15.341C19.5499 15.1321 19.7157 14.884 19.8287 14.611C19.9418 14.3381 20 14.0455 20 13.75V2.25ZM17.75 1.5C17.9489 1.5 18.1397 1.57902 18.2803 1.71967C18.421 1.86032 18.5 2.05109 18.5 2.25V13.75C18.5 14.164 18.164 14.5 17.75 14.5H2.25C2.05109 14.5 1.86032 14.421 1.71967 14.2803C1.57902 14.1397 1.5 13.9489 1.5 13.75V2.25C1.5 2.05109 1.57902 1.86032 1.71967 1.71967C1.86032 1.57902 2.05109 1.5 2.25 1.5H17.75Z" fill="#ffffff"/>
<path d="M9.99985 3.245C9.801 3.24517 9.61037 3.3243 9.46985 3.465L6.21485 6.72C6.14116 6.78866 6.08206 6.87146 6.04107 6.96346C6.00008 7.05546 5.97803 7.15477 5.97626 7.25547C5.97448 7.35618 5.99301 7.45621 6.03073 7.54959C6.06845 7.64298 6.12459 7.72781 6.19581 7.79903C6.26703 7.87025 6.35186 7.9264 6.44525 7.96412C6.53864 8.00184 6.63867 8.02036 6.73937 8.01859C6.84007 8.01681 6.93939 7.99477 7.03139 7.95378C7.12339 7.91278 7.20619 7.85368 7.27485 7.78L9.24985 5.806V12.253C9.24985 12.4519 9.32887 12.6427 9.46952 12.7833C9.61017 12.924 9.80094 13.003 9.99985 13.003C10.1988 13.003 10.3895 12.924 10.5302 12.7833C10.6708 12.6427 10.7498 12.4519 10.7498 12.253V5.808L12.7198 7.78C12.7885 7.85368 12.8713 7.91278 12.9633 7.95378C13.0553 7.99477 13.1546 8.01681 13.2553 8.01859C13.356 8.02036 13.4561 8.00184 13.5494 7.96412C13.6428 7.9264 13.7277 7.87025 13.7989 7.79903C13.8701 7.72781 13.9262 7.64298 13.964 7.54959C14.0017 7.45621 14.0202 7.35618 14.0184 7.25547C14.0167 7.15477 13.9946 7.05546 13.9536 6.96346C13.9126 6.87146 13.8535 6.78866 13.7798 6.72L10.5298 3.466C10.3893 3.3253 10.1987 3.24617 9.99985 3.246V3.245Z" fill="#ffffff"/>
</svg>
