<svg width="20" height="20" viewBox="0 0 20 20" fill="none" xmlns="http://www.w3.org/2000/svg">
<path fill-rule="evenodd" clip-rule="evenodd" d="M17.8125 1.875C17.8954 1.875 17.9749 1.90792 18.0335 1.96653C18.0921 2.02513 18.125 2.10462 18.125 2.1875V14.0625C18.125 14.235 17.985 14.375 17.8125 14.375H15.3125C15.0639 14.375 14.8254 14.4738 14.6496 14.6496C14.4738 14.8254 14.375 15.0639 14.375 15.3125V18.05L10.975 14.65C10.7994 14.4741 10.5611 14.3752 10.3125 14.375H2.1875C2.10462 14.375 2.02513 14.3421 1.96653 14.2835C1.90792 14.2249 1.875 14.1454 1.875 14.0625V2.1875C1.875 2.10462 1.90792 2.02513 1.96653 1.96653C2.02513 1.90792 2.10462 1.875 2.1875 1.875H17.8125V1.875ZM20 2.1875C20 0.98 19.02 0 17.8125 0H2.1875C0.98 0 0 0.98 0 2.1875V14.0625C0 14.6427 0.230468 15.1991 0.640703 15.6093C1.05094 16.0195 1.60734 16.25 2.1875 16.25H9.925L13.1413 19.4662C13.396 19.7208 13.7204 19.8942 14.0736 19.9644C14.4268 20.0346 14.7929 19.9986 15.1256 19.8608C15.4583 19.723 15.7427 19.4896 15.9429 19.1902C16.143 18.8909 16.2499 18.5389 16.25 18.1788V16.25H17.8125C18.3927 16.25 18.9491 16.0195 19.3593 15.6093C19.7695 15.1991 20 14.6427 20 14.0625V2.1875ZM8.75 11.25C8.75 11.5815 8.8817 11.8995 9.11612 12.1339C9.35054 12.3683 9.66848 12.5 10 12.5C10.3315 12.5 10.6495 12.3683 10.8839 12.1339C11.1183 11.8995 11.25 11.5815 11.25 11.25C11.25 10.9185 11.1183 10.6005 10.8839 10.3661C10.6495 10.1317 10.3315 10 10 10C9.66848 10 9.35054 10.1317 9.11612 10.3661C8.8817 10.6005 8.75 10.9185 8.75 11.25V11.25ZM9.0625 4.6875C9.0625 4.43886 9.16127 4.2004 9.33709 4.02459C9.5129 3.84877 9.75136 3.75 10 3.75C10.2486 3.75 10.4871 3.84877 10.6629 4.02459C10.8387 4.2004 10.9375 4.43886 10.9375 4.6875V7.8125C10.9375 8.06114 10.8387 8.2996 10.6629 8.47541C10.4871 8.65123 10.2486 8.75 10 8.75C9.75136 8.75 9.5129 8.65123 9.33709 8.47541C9.16127 8.2996 9.0625 8.06114 9.0625 7.8125V4.6875Z" fill="#5f6368"/>
</svg>
