<svg width="20" height="20" viewBox="0 0 20 20" fill="none" xmlns="http://www.w3.org/2000/svg">
<path d="M5.85556 0H14.1444L20 5.85556V14.1444L14.1444 20H5.85556L-9.53674e-07 14.1444V5.85556L5.85556 0ZM2.22222 13.2222L6.77778 17.7778H13.2222L17.7778 13.2222V6.77778L13.2222 2.22222H6.77778L2.22222 6.77778V13.2222V13.2222Z" fill="#5F6368"/>
<path d="M10.0002 15.5556C9.38657 15.5556 8.88911 15.0581 8.88911 14.4445C8.88911 13.8308 9.38657 13.3334 10.0002 13.3334C10.6139 13.3334 11.1113 13.8308 11.1113 14.4445C11.1113 15.0581 10.6139 15.5556 10.0002 15.5556Z" fill="#5F6368"/>
<path d="M11.1113 4.44446H8.88911V12.2222H11.1113V4.44446Z" fill="#5F6368"/>
</svg>
