<svg width="30" height="30" viewBox="0 0 30 30" fill="none" xmlns="http://www.w3.org/2000/svg">
<path d="M4.06075 2.97002L26.6357 13.7679C26.8636 13.877 27.056 14.0483 27.1907 14.262C27.3254 14.4758 27.3968 14.7233 27.3968 14.9759C27.3968 15.2286 27.3254 15.476 27.1907 15.6898C27.056 15.9036 26.8636 16.0749 26.6357 16.1839L4.06075 26.9818C3.82923 27.0928 3.57069 27.1349 3.31592 27.1031C3.06116 27.0712 2.8209 26.9669 2.62378 26.8024C2.42665 26.6379 2.28097 26.4202 2.20407 26.1752C2.12717 25.9303 2.12229 25.6684 2.19003 25.4207L5.04003 14.9764L2.19003 4.53002C2.12284 4.28252 2.12812 4.02092 2.20526 3.77633C2.28239 3.53175 2.42813 3.31445 2.62515 3.15026C2.82217 2.98608 3.06218 2.88192 3.31667 2.85015C3.57116 2.81839 3.82942 2.86037 4.06075 2.97109V2.97002ZM3.89468 4.67359L6.49075 14.1954H18.2143C18.4088 14.1955 18.5967 14.2661 18.7431 14.3941C18.8895 14.5222 18.9845 14.699 19.0104 14.8918L19.0179 14.9989C19.0181 15.1933 18.9479 15.3812 18.8203 15.5278C18.6926 15.6743 18.5162 15.7697 18.3236 15.7961L18.2143 15.8036L6.47789 15.8025L3.89575 25.2793L25.4379 14.9754L3.89468 4.67252V4.67359Z" fill="#C9C9C9"/>
</svg>
